<?xml version="1.0" standalone="no"?>
<!DOCTYPE svg PUBLIC "-//W3C//DTD SVG 20010904//EN"
 "http://www.w3.org/TR/2001/REC-SVG-20010904/DTD/svg10.dtd">
<svg version="1.0" xmlns="http://www.w3.org/2000/svg"
 width="469.000000pt" height="469.000000pt" viewBox="0 0 469.000000 469.000000"
 preserveAspectRatio="xMidYMid meet">
<metadata>
Created by potrace 1.14, written by Peter Selinger 2001-2017
</metadata>
<g transform="translate(0.000000,469.000000) scale(0.100000,-0.100000)"
fill="#000000" stroke="none">
<path d="M630 3521 c-26 -7 -28 -13 -164 -391 -18 -52 -91 -252 -160 -444 -69
-192 -126 -353 -126 -358 0 -5 37 -8 82 -6 l81 3 52 150 52 150 251 2 c230 3
250 2 257 -15 4 -9 26 -71 50 -137 24 -66 46 -128 50 -137 6 -15 20 -18 91
-18 46 0 84 4 84 8 0 10 -78 229 -255 717 -69 193 -136 376 -147 408 -14 38
-29 62 -42 66 -26 10 -124 11 -156 2z m103 -261 c33 -99 152 -437 166 -472
l11 -28 -211 0 c-197 0 -211 1 -204 18 13 33 167 477 182 526 8 27 18 45 22
40 5 -5 20 -43 34 -84z"/>
<path d="M3455 3201 c-42 -19 -83 -55 -125 -108 l-25 -32 -3 66 c-1 37 -4 69
-7 71 -8 8 -90 9 -112 1 l-21 -8 0 -436 -1 -436 77 3 77 3 1 282 1 282 29 43
c16 23 48 61 70 84 50 51 92 62 171 44 30 -6 57 -9 60 -6 9 9 11 110 2 127
-19 38 -132 50 -194 20z"/>
<path d="M4017 3196 c-108 -36 -194 -122 -232 -231 -26 -76 -27 -82 -31 -195
-7 -214 59 -360 195 -430 36 -18 59 -20 232 -20 262 0 309 16 309 106 0 30 -5
46 -15 50 -8 4 -50 -7 -92 -22 -68 -25 -92 -29 -188 -29 -119 0 -163 14 -212
67 -35 37 -64 113 -66 174 l-2 56 287 1 c341 2 324 -4 322 110 -1 40 -4 87 -8
105 -18 93 -93 199 -168 238 -91 47 -226 55 -331 20z m196 -107 c88 -23 143
-94 154 -200 l5 -49 -231 0 c-171 0 -231 3 -231 12 0 6 8 39 17 72 36 129 158
199 286 165z"/>
<path d="M2164 3195 c-13 -9 -15 -58 -11 -340 2 -219 7 -342 15 -366 17 -51
62 -114 102 -144 32 -24 40 -25 167 -25 151 0 176 8 251 78 31 29 42 35 43 23
2 -28 6 -76 8 -89 1 -9 19 -12 69 -10 l67 3 0 432 c0 237 -3 434 -6 438 -11
11 -112 14 -131 4 -17 -9 -18 -30 -18 -312 l0 -303 -57 -58 c-93 -94 -176
-120 -256 -81 -33 16 -48 33 -72 79 l-29 59 -1 298 c0 223 -3 301 -13 311 -15
15 -109 18 -128 3z"/>
<path d="M1365 3190 c-12 -20 -7 -103 7 -111 7 -5 93 -9 191 -9 97 0 177 -3
177 -6 0 -5 -68 -113 -312 -491 -79 -123 -97 -177 -78 -229 l10 -24 287 2 288
3 3 43 c5 72 5 72 -220 72 -110 0 -198 4 -196 8 3 7 51 84 286 449 89 139 112
190 108 239 -2 23 -6 46 -10 52 -10 16 -532 17 -541 2z"/>
<path d="M3754 2273 c-8 -6 -12 -128 -12 -431 l0 -423 21 -8 c20 -8 62 -5 77
4 4 2 7 197 6 432 l-1 428 -40 3 c-22 1 -45 -1 -51 -5z"/>
<path d="M4045 2273 c-11 -9 -14 -848 -3 -858 10 -10 62 -12 81 -3 15 8 17 26
17 164 l0 156 23 -29 c13 -15 65 -83 116 -150 51 -67 99 -127 106 -133 19 -16
92 -17 107 -2 12 12 4 22 -175 255 l-60 78 114 115 c105 106 112 117 96 129
-11 8 -37 12 -60 10 -33 -2 -47 -10 -75 -41 -19 -22 -69 -77 -111 -123 l-76
-83 -5 258 -5 259 -40 3 c-22 1 -44 -1 -50 -5z"/>
<path d="M2527 2213 c-4 -3 -7 -18 -7 -32 0 -51 9 -54 134 -54 l116 0 0 -357
0 -358 23 -4 c12 -2 36 -1 52 2 l30 5 1 345 c1 190 2 350 3 356 1 8 38 11 117
10 81 -1 118 3 121 11 10 25 10 49 1 66 -8 16 -33 17 -297 17 -158 0 -291 -3
-294 -7z"/>
<path d="M2217 2163 c-4 -3 -7 -174 -7 -379 l0 -373 23 -3 c12 -2 32 -2 45 0
22 4 22 6 22 179 0 160 2 177 20 200 50 64 120 90 171 63 43 -24 51 -63 53
-254 1 -168 3 -180 21 -186 11 -4 31 -4 45 0 l25 6 -2 195 c-1 220 -8 249 -70
296 -49 37 -129 42 -188 10 -22 -12 -44 -28 -48 -34 -19 -30 -26 -7 -26 80 0
50 0 118 0 150 l-1 57 -38 0 c-21 0 -42 -3 -45 -7z"/>
<path d="M666 2113 c-3 -4 -6 -21 -6 -40 0 -33 1 -33 48 -34 26 0 74 -2 107
-2 l60 -2 0 -310 1 -309 24 -6 c14 -3 35 -4 48 -2 l22 4 0 315 0 314 63 -1
c131 -3 145 -1 152 20 3 11 4 29 0 39 -6 19 -18 20 -259 20 -140 0 -257 -3
-260 -6z"/>
<path d="M3265 2008 c-66 -14 -125 -40 -135 -59 -6 -10 -10 -29 -10 -43 0 -29
26 -35 63 -14 73 41 169 50 218 21 32 -19 49 -58 49 -114 0 -37 -2 -39 -32
-40 -148 -3 -227 -25 -281 -77 -71 -68 -53 -204 35 -257 25 -15 51 -20 109
-20 68 0 81 3 128 33 61 38 61 37 56 14 -2 -10 0 -25 5 -32 9 -15 70 -16 79
-1 3 5 5 109 5 230 -2 210 -3 223 -25 268 -40 80 -146 117 -264 91z m185 -386
c0 -52 -3 -61 -32 -89 -64 -62 -141 -71 -189 -24 -50 51 -34 127 35 157 17 7
66 13 109 14 l77 0 0 -58z"/>
<path d="M1300 1927 c-53 -17 -116 -86 -134 -148 -21 -68 -20 -173 0 -233 40
-117 164 -169 326 -135 61 13 88 33 88 65 0 32 -12 36 -61 18 -86 -30 -192
-22 -233 18 -21 22 -34 51 -41 96 -7 49 -31 44 191 42 168 -1 169 0 161 90 -6
61 -15 84 -50 132 -40 55 -163 82 -247 55z m155 -81 c42 -27 74 -125 43 -127
-57 -2 -252 2 -256 6 -13 13 36 101 66 122 39 26 106 26 147 -1z"/>
<path d="M1857 1930 c-50 -15 -98 -61 -125 -119 -22 -48 -26 -69 -26 -151 1
-82 4 -102 27 -147 15 -28 39 -60 54 -71 71 -49 177 -54 255 -10 36 19 44 29
46 57 4 43 -11 60 -35 39 -54 -48 -129 -61 -184 -32 -60 31 -88 156 -59 263
27 100 123 134 213 75 46 -30 67 -25 67 16 0 46 -62 83 -143 86 -34 1 -75 -2
-90 -6z"/>
</g>
</svg>
