<?xml version="1.0" standalone="no"?>
<!DOCTYPE svg PUBLIC "-//W3C//DTD SVG 20010904//EN"
 "http://www.w3.org/TR/2001/REC-SVG-20010904/DTD/svg10.dtd">
<svg version="1.0" xmlns="http://www.w3.org/2000/svg"
 width="540.000000pt" height="540.000000pt" viewBox="0 0 540.000000 540.000000"
 preserveAspectRatio="xMidYMid meet">
<metadata>
Created by potrace 1.14, written by Peter Selinger 2001-2017
</metadata>
<g transform="translate(0.000000,540.000000) scale(0.100000,-0.100000)"
fill="#000000" stroke="none">
<path d="M955 3886 c-8 -6 -62 -144 -120 -306 -59 -162 -145 -401 -191 -530
-47 -129 -94 -259 -104 -287 -21 -58 -19 -78 11 -86 29 -8 111 1 123 13 6 6
34 77 62 158 l51 147 252 0 253 0 49 -140 c60 -169 59 -167 92 -176 36 -10
116 -4 129 9 12 12 6 29 -120 377 -44 121 -101 279 -127 350 -164 456 -168
467 -194 476 -32 13 -147 9 -166 -5z m191 -467 l101 -289 -208 0 -208 0 99
291 c55 160 100 294 100 297 0 25 29 -50 116 -299z"/>
<path d="M3794 3571 c-40 -18 -134 -105 -134 -122 0 -5 -4 -9 -9 -9 -5 0 -8
25 -7 56 1 44 -3 59 -17 69 -18 13 -95 14 -115 1 -6 -3 -10 -168 -10 -442 l0
-435 21 -8 c25 -10 115 -7 125 4 4 4 8 134 8 289 1 312 -3 290 72 383 63 79
112 96 208 72 25 -6 48 -9 51 -5 3 3 6 33 7 66 1 76 -11 88 -94 95 -52 4 -73
2 -106 -14z"/>
<path d="M4382 3575 c-111 -31 -185 -93 -237 -199 -44 -91 -50 -123 -49 -276
1 -99 6 -137 22 -182 64 -178 199 -261 412 -252 108 4 123 6 214 34 39 12 70
28 76 40 15 29 13 100 -4 106 -8 3 -54 -8 -103 -25 -78 -27 -99 -30 -188 -28
-107 3 -156 19 -202 69 -32 34 -60 105 -68 171 -7 55 -7 57 16 58 13 0 144 1
290 2 323 2 309 -3 304 117 -7 169 -69 280 -191 343 -66 34 -210 45 -292 22z
m193 -121 c70 -26 122 -100 131 -187 l6 -57 -231 0 -232 0 6 37 c15 96 80 182
157 209 35 12 129 11 163 -2z"/>
<path d="M2507 3568 c-15 -8 -17 -41 -17 -313 0 -376 9 -429 90 -514 51 -53
112 -75 205 -75 67 1 89 5 138 29 31 16 76 46 98 67 23 22 43 37 46 34 3 -3 6
-28 7 -55 2 -28 6 -54 10 -58 9 -10 114 -8 124 1 4 4 7 203 8 442 1 431 1 434
-20 441 -32 10 -99 11 -118 1 -17 -8 -18 -33 -18 -312 l0 -303 -57 -57 c-68
-69 -123 -99 -178 -99 -51 0 -110 27 -134 62 -40 58 -45 95 -46 403 0 163 -4
300 -8 304 -10 11 -112 12 -130 2z"/>
<path d="M1705 3560 c-8 -14 -9 -72 -1 -97 7 -23 9 -23 192 -23 101 0 184 -3
184 -6 0 -3 -84 -136 -186 -296 -102 -160 -192 -305 -199 -322 -15 -36 -12
-100 5 -122 10 -12 59 -14 285 -14 303 0 299 -1 297 67 -3 63 -3 63 -223 63
-110 0 -199 2 -199 4 0 3 36 60 79 128 179 278 301 476 312 506 11 31 8 90 -5
111 -9 14 -532 16 -541 1z"/>
<path d="M2960 2472 c-14 -2 -27 -8 -30 -12 -3 -4 -5 -148 -4 -320 0 -239 3
-313 13 -319 17 -11 61 -2 62 13 1 6 2 75 3 153 1 136 2 142 26 168 42 45 75
56 132 46 4 0 16 -13 25 -28 15 -22 19 -56 23 -187 l5 -160 25 -6 c50 -13 51
-9 49 169 -1 117 -5 176 -15 201 -19 48 -73 83 -127 83 -43 0 -117 -28 -117
-44 0 -5 -6 -9 -13 -9 -9 0 -12 29 -12 116 1 67 -3 121 -10 128 -5 7 -21 10
-35 8z"/>
<path d="M4297 2469 c-12 -7 -14 -58 -14 -324 0 -341 -1 -338 53 -327 l24 4 0
323 0 323 -24 4 c-13 3 -31 1 -39 -3z"/>
<path d="M4524 2469 c-20 -7 -21 -14 -21 -321 0 -172 4 -318 8 -324 5 -6 22
-9 39 -6 l30 4 0 120 0 119 75 -95 c41 -53 82 -107 91 -121 13 -19 25 -25 55
-25 49 0 56 13 27 48 -13 16 -32 41 -43 56 -11 15 -30 40 -43 54 -12 15 -34
43 -48 64 l-26 36 82 81 c87 85 97 111 41 111 -31 0 -45 -12 -149 -123 l-63
-68 1 118 c3 250 2 270 -18 275 -10 3 -27 2 -38 -3z"/>
<path d="M1256 2422 c-2 -4 -7 -28 -10 -52 -15 -104 -18 -109 -64 -105 -16 1
-24 -5 -28 -22 -8 -30 -3 -35 36 -37 l31 -1 -6 -70 c-4 -38 -9 -73 -12 -77 -2
-5 -19 -8 -37 -8 -28 0 -34 -4 -38 -25 -6 -31 -2 -35 39 -35 19 0 32 -3 30 -7
-3 -5 -8 -41 -11 -82 -8 -80 -2 -91 38 -84 21 4 24 13 30 66 13 111 9 107 83
107 55 0 64 -2 59 -16 -3 -8 -8 -46 -12 -83 -5 -62 -4 -69 14 -73 37 -10 50 9
57 80 4 38 10 73 13 79 4 6 23 13 42 15 34 3 36 6 31 48 0 6 -15 10 -32 10
l-32 0 7 61 c3 34 6 70 6 79 0 12 8 16 28 15 40 -3 52 4 52 30 0 24 -17 35
-51 35 -15 0 -19 5 -15 18 3 9 8 45 11 80 l5 62 -29 0 c-36 0 -42 -8 -48 -69
-7 -75 -9 -82 -20 -89 -9 -6 -54 -7 -111 -3 -8 1 -11 8 -8 19 3 9 8 45 12 80
l6 62 -30 0 c-17 0 -33 -3 -36 -8z m159 -277 c-9 -96 -8 -95 -77 -95 l-61 0 8
72 c3 40 8 75 10 79 3 3 32 6 65 5 l61 0 -6 -61z"/>
<path d="M1601 2412 c-5 -8 -6 -23 -4 -33 6 -20 22 -22 131 -19 l52 1 0 -266
c0 -265 0 -266 22 -274 32 -12 58 -2 59 23 0 11 2 131 2 266 l2 245 80 2 c100
3 107 6 103 40 l-3 28 -218 1 c-182 0 -219 -2 -226 -14z"/>
<path d="M3371 2412 c-5 -8 -6 -23 -4 -33 6 -20 28 -23 136 -19 l47 1 1 -93
c0 -51 0 -171 0 -266 0 -169 0 -173 21 -181 30 -11 58 -2 58 18 1 9 2 130 2
268 l2 253 84 -1 c91 -1 108 6 99 43 l-6 24 -216 0 c-180 0 -217 -2 -224 -14z"/>
<path d="M2172 2269 c-98 -21 -155 -104 -155 -229 0 -158 73 -232 223 -226 80
3 137 23 144 50 9 35 -9 45 -55 30 -131 -46 -229 -1 -229 105 l0 31 141 -1
c80 0 146 4 152 10 26 26 -1 142 -45 188 -34 37 -113 56 -176 42z m112 -81
c14 -13 29 -41 34 -64 l9 -40 -111 1 c-61 1 -114 3 -119 4 -13 2 23 75 49 99
18 16 38 22 69 22 31 0 51 -6 69 -22z"/>
<path d="M2665 2272 c-11 -1 -39 -10 -61 -18 -149 -54 -152 -369 -4 -428 78
-31 207 1 221 55 12 47 -4 54 -53 25 -48 -28 -92 -33 -131 -15 -75 34 -89 209
-23 286 31 36 106 39 153 6 17 -13 36 -23 42 -23 12 0 15 49 3 66 -18 27 -103
54 -147 46z"/>
<path d="M3918 2265 c-68 -13 -105 -36 -103 -64 2 -33 12 -35 64 -12 116 49
192 10 182 -95 -1 -7 -31 -13 -74 -16 -118 -8 -185 -53 -191 -129 -11 -117
134 -177 246 -103 l38 24 -3 -22 c-2 -19 3 -24 31 -26 l32 -3 0 171 c0 187 -8
225 -55 256 -38 25 -102 32 -167 19z m141 -253 c27 -43 -23 -125 -84 -136 -80
-15 -129 62 -75 118 30 30 143 44 159 18z"/>
</g>
</svg>
